# AST/ASF file generated using VICON BodyLanguage
# -----------------------------------------------
:version 1.10
:name VICON
:units
  mass 1.0
  length 0.45
  angle deg
:documentation
   .ast/.asf automatically generated from VICON data using
   VICON BodyBuilder and BodyLanguage model FoxedUp or BRILLIANT.MOD
:root
   order TX TY TZ RX RY RZ
   axis XYZ
   position 0 0 0  
   orientation 0 0 0 
:bonedata
  begin
     id 1 
     name lhipjoint
     direction 0.722297 -0.617336 0.311742 
     length 2.6635 
     axis 0 0 0  XYZ
  end
  begin
     id 2 
     name lfemur
     direction 0.34202 -0.939693 0  
     length 7.39349  
     axis 0 0 20  XYZ
    dof rx ry rz
    limits (-160.0 20.0)
           (-70.0 70.0)
           (-60.0 70.0)
  end
  begin
     id 3 
     name ltibia
     direction 0.34202 -0.939693 0   
     length 7.36294   
     axis 0 0 20   XYZ
    dof rx
    limits (-10.0 170.0)
  end
  begin
     id 4 
     name lfoot
     direction 0.104879 -0.288152 0.951824   
     length 2.16981   
     axis -90 7.62852e-016 20   XYZ
    dof rx rz
    limits (-45.0 90.0)
           (-70.0 20.0)
  end
  begin
     id 5 
     name ltoes
     direction 1.53586e-011 -4.21895e-011 1   
     length 1.08218   
     axis -90 7.62852e-016 20   XYZ
    dof rx
    limits (-90.0 20.0)
  end
  begin
     id 6 
     name rhipjoint
     direction -0.75102 -0.589393 0.297631   
     length 2.78977  
     axis 0 0 0  XYZ 
  end
  begin
     id 7 
     name rfemur
     direction -0.34202 -0.939693 0   
     length 7.46076   
     axis 0 0 -20   XYZ
    dof rx ry rz
    limits (-160.0 20.0)
           (-70.0 70.0)
           (-70.0 60.0)
  end
  begin
     id 8 
     name rtibia
     direction -0.34202 -0.939693 0   
     length 7.31726   
     axis 0 0 -20   XYZ
    dof rx
    limits (-10.0 170.0)
 end
 begin
     id 9 
     name rfoot
     direction -0.107991 -0.296704 0.948844   
     length 2.09388  
     axis -90 -7.62852e-016 -20   XYZ
    dof rx rz
    limits (-45.0 90.0)
           (-20.0 70.0)
  end
  begin
     id 10 
     name rtoes
     direction -1.53559e-011 -4.21911e-011 1   
     length 1.04433   
     axis -90 -7.62852e-016 -20   XYZ
    dof rx
    limits (-90.0 20.0)
  end
  begin
     id 11 
     name lowerback
     direction 0.0165164 0.98272 0.184358   
     length 1.71896   
     axis 0 0 0   XYZ
    dof rx ry rz
    limits (-20.0 45.0)
           (-30.0 30.0)
           (-30.0 30.0)
  end
  begin
     id 12 
     name upperback
     direction -0.00887249 0.992297 0.123566   
     length 1.71504   
     axis 0 0 0   XYZ
    dof rx ry rz
    limits (-20.0 45.0)
           (-30.0 30.0)
           (-30.0 30.0)
  end
  begin
     id 13 
     name thorax
     direction -0.0157026 0.998908 0.0440032   
     length 1.77022   
     axis 0 0 0   XYZ
    dof rx ry rz
    limits (-20.0 45.0)
           (-30.0 30.0)
           (-30.0 30.0)
  end
  begin
     id 14 
     name lowerneck
     direction -0.0238856 0.998137 0.0561411   
     length 1.89341   
     axis 0 0 0   XYZ
    dof rx ry rz
    limits (-20.0 45.0)
           (-30.0 30.0)
           (-30.0 30.0)
  end
  begin
     id 15 
     name upperneck
     direction 0.0276574 0.952253 -0.304056   
     length 1.86999   
     axis 0 0 0   XYZ
    dof rx ry rz
    limits (-20.0 45.0)
           (-30.0 30.0)
           (-30.0 30.0)
  end
  begin
     id 16
     name head
     direction 0.00800083 0.994258 -0.106712  
     length 1.91492  
     axis 0 0 0   XYZ
    dof rx ry rz
    limits (-20.0 45.0)
           (-30.0 30.0)
           (-30.0 30.0)
  end
  begin
     id 17 
     name lclavicle
     direction 0.97203 0.225407 0.06595  
     length 3.34889  
     axis 0 0 0   XYZ
    dof ry rz
    limits (-20.0 10.0)
           (0.0 20.0)
  end
  begin
     id 18 
     name lhumerus
     direction 1 -4.48973e-011 2.20267e-027   
     length 4.85645   
     axis 180 -30 -90   XYZ
    dof rx ry rz
    limits (-60.0 90.0)
           (-90.0 90.0)
           (-90.0 90.0)
  end
  begin
     id 19
     name lradius
     direction 1 -4.4897e-011 4.60472e-027   
     length 2.79874   
     axis 180 -30 -90   XYZ
    dof rx
    limits (-10.0 170.0)
  end
  begin
     id 20
     name lwrist
     direction 1 -4.48952e-011 1.14928e-026   
     length 1.39937   
     axis -6.29373e-015 90 90   XYZ
    dof ry
    limits (-180.0 0.0)
 end
  begin
     id 21 
     name lhand
     direction 1 -4.48967e-011 2.29886e-026   
     length 0.573398   
     axis -1.46689e-014 90 90   XYZ
    dof rx rz
    limits (-90.0 90.0)
           (-45.0 45.0)
  end
  begin
     id 22 
     name lfingers
     direction 1 -4.48955e-011 4.59726e-026   
     length 0.462289   
     axis -2.93383e-014 90 90   XYZ
    dof rx
    limits (0.0 90.0)
  end
  begin
     id 23
     name lthumb
     direction 0.707107 -6.34866e-011 0.707107   
     length 0.663757   
     axis -90 45 5.69224e-014   XYZ
    dof rx rz
    limits (-45.0 45.0)
           (-45.0 45.0)
  end
  begin
     id 24 
     name rclavicle
     direction -0.981571 0.157346 0.108443   
     length 3.35257  
     axis 0 0 0   XYZ 
    dof ry rz
    limits (-10.0 20.0)
           (-20.0 0.0)
  end
  begin
     id 25 
     name rhumerus
     direction -1 -4.48967e-011 8.58308e-029  
     length 4.67018   
     axis 180 30 90   XYZ
    dof rx ry rz
    limits (-90.0 60.0)
           (-90.0 90.0)
           (-90.0 90.0)
  end
  begin
     id 26 
     name rradius
     direction -1 -4.48958e-011 4.52548e-027   
     length 2.65534   
     axis 180 30 90   XYZ
    dof rx
    limits (-10.0 170.0)
  end
  begin
     id 27 
     name rwrist
     direction -1 -4.48977e-011 1.14952e-026   
     length 1.32767   
     axis -6.29373e-015 -90 -90   XYZ
    dof ry
    limits (-180.0 0.0)
  end
  begin
     id 28
     name rhand
     direction -1 -4.48924e-011 2.29804e-026   
     length 0.594069   
     axis -1.46689e-014 -90 -90   XYZ
    dof rx rz
    limits (-90.0 90.0)
           (-45.0 45.0)
  end
  begin
     id 29
     name rfingers
     direction -1 -4.48998e-011 4.59888e-026   
     length 0.478954   
     axis -2.93383e-014 -90 -90   XYZ
    dof rx
    limits (0.0 90.0)
  end
  begin
     id 30
     name rthumb
     direction -0.707107 -6.34933e-011 0.707107   
     length 0.687685   
     axis -90 -45 -5.69224e-014   XYZ
    dof rx rz
    limits (-45.0 45.0)
           (-45.0 45.0)
  end
:hierarchy
  begin
    root lhipjoint rhipjoint lowerback
    lhipjoint lfemur
    lfemur ltibia
    ltibia lfoot
    lfoot ltoes
    rhipjoint rfemur
    rfemur rtibia
    rtibia rfoot
    rfoot rtoes
    lowerback upperback
    upperback thorax
    thorax lowerneck lclavicle rclavicle
    lowerneck upperneck
    upperneck head
    lclavicle lhumerus
    lhumerus lradius
    lradius lwrist
    lwrist lhand lthumb
    lhand lfingers
    rclavicle rhumerus
    rhumerus rradius
    rradius rwrist
    rwrist rhand rthumb
    rhand rfingers
  end

#!OML:ASF E:\pregnant2\Project 1\Capture day 1\Session 1\pregnant2.ASF
:FULLY-SPECIFIED
:DEGREES
113
root -4.29675 15.7517 20.1458 28.0472 5.97021 -0.762215
lowerback -20.1805 1.02042 2.61361
upperback -16.1845 1.05276 -0.58715
thorax -6.41128 0.300838 -1.95558
lowerneck -15.7804 -3.86981 -5.11202
upperneck 35.5578 -5.42009 3.32509
head 15.3495 -2.52481 1.34761
rclavicle -1.0312e-015 6.55989e-015
rhumerus -22.0673 6.41809 -79.2294
rradius 115.481
rwrist 37.0014
rhand -5.81525 -8.45416
rfingers 7.12502
rthumb 20.01 -37.4439
lclavicle -1.0312e-015 6.55989e-015
lhumerus -26.5091 -2.54803 79.8661
lradius 118.207
lwrist -28.1309
lhand -9.28584 15.571
lfingers 7.12502
lthumb 16.6713 44.8751
rfemur -56.2805 -3.20399 20.3161
rtibia 61.8523
rfoot -27.53 -14.0778
rtoes -14.2018
lfemur -57.0096 6.5775 -19.8739
ltibia 61.187
lfoot -27.3949 5.68728
ltoes -13.8591
114
root -4.29632 15.7522 20.146 28.0467 5.96491 -0.764533
lowerback -20.1784 1.02104 2.61367
upperback -16.1827 1.05356 -0.5853
thorax -6.41016 0.301353 -1.95351
lowerneck -15.7735 -3.86679 -5.09903
upperneck 35.5363 -5.42008 3.32718
head 15.337 -2.52289 1.34616
rclavicle -1.25234e-014 8.74653e-015
rhumerus -22.0779 6.40721 -79.2334
rradius 115.477
rwrist 37.0093
rhand -5.80761 -8.45013
rfingers 7.12502
rthumb 20.0173 -37.4391
lclavicle -1.25234e-014 8.74653e-015
lhumerus -26.5163 -2.54815 79.8758
lradius 118.212
lwrist -28.1292
lhand -9.28988 15.5657
lfingers 7.12502
lthumb 16.6674 44.8701
rfemur -56.2763 -3.20552 20.3178
rtibia 61.8434
rfoot -27.5245 -14.0713
rtoes -14.2006
lfemur -57.0045 6.57834 -19.8741
ltibia 61.1808
lfoot -27.3905 5.69641
ltoes -13.8765
115
root -4.29586 15.7528 20.1463 28.045 5.96041 -0.768337
lowerback -20.177 1.02273 2.61541
upperback -16.1798 1.05548 -0.584185
thorax -6.40745 0.302286 -1.95299
lowerneck -15.7656 -3.86437 -5.08237
upperneck 35.5127 -5.42099 3.32625
head 15.323 -2.5213 1.34262
rclavicle 3.72721e-015 -9.34288e-015
rhumerus -22.0874 6.39298 -79.2378
rradius 115.474
rwrist 37.0135
rhand -5.79397 -8.44358
rfingers 7.12502
rthumb 20.0304 -37.4311
lclavicle 3.72721e-015 -9.34288e-015
lhumerus -26.5228 -2.55114 79.8866
lradius 118.218
lwrist -28.1267
lhand -9.29324 15.5636
lfingers 7.12502
lthumb 16.6641 44.8683
rfemur -56.2693 -3.20891 20.3221
rtibia 61.8332
rfoot -27.5219 -14.0651
rtoes -14.2038
lfemur -56.9966 6.58009 -19.873
ltibia 61.1741
lfoot -27.3878 5.70575
ltoes -13.9016
116
root -4.29538 15.7534 20.1466 28.0451 5.957 -0.772887
lowerback -20.1744 1.02493 2.6181
upperback -16.1798 1.05805 -0.583551
thorax -6.40857 0.303362 -1.95348
lowerneck -15.7544 -3.86119 -5.06509
upperneck 35.4905 -5.42152 3.32635
head 15.309 -2.51937 1.33955
rclavicle 1.60022e-014 7.25564e-015
rhumerus -22.1026 6.37656 -79.2433
rradius 115.475
rwrist 37.0164
rhand -5.77747 -8.43816
rfingers 7.12502
rthumb 20.0463 -37.424
lclavicle 1.60022e-014 7.25564e-015
lhumerus -26.5325 -2.55564 79.898
lradius 118.223
lwrist -28.1246
lhand -9.29189 15.5617
lfingers 7.12502
lthumb 16.6654 44.8663
rfemur -56.2637 -3.21282 20.3275
rtibia 61.821
rfoot -27.5182 -14.0597
rtoes -14.2115
lfemur -56.9905 6.58133 -19.8706
ltibia 61.1667
lfoot -27.3851 5.71162
ltoes -13.9111
117
root -4.29495 15.7541 20.147 28.0452 5.9535 -0.776429
lowerback -20.173 1.02677 2.61849
upperback -16.1792 1.06041 -0.583415
thorax -6.40842 0.304543 -1.95322
lowerneck -15.7426 -3.85724 -5.04481
upperneck 35.4683 -5.42135 3.325
head 15.2945 -2.51693 1.33549
rclavicle 6.33626e-015 1.35671e-014
rhumerus -22.1171 6.35894 -79.2491
rradius 115.477
rwrist 37.0157
rhand -5.76317 -8.43354
rfingers 7.12502
rthumb 20.06 -37.418
lclavicle 6.33626e-015 1.35671e-014
lhumerus -26.5415 -2.56048 79.9089
lradius 118.227
lwrist -28.1248
lhand -9.2867 15.5627
lfingers 7.12502
lthumb 16.6704 44.8669
rfemur -56.2587 -3.21603 20.3317
rtibia 61.8098
rfoot -27.5152 -14.0553
rtoes -14.2192
lfemur -56.9839 6.58296 -19.8698
ltibia 61.1601
lfoot -27.3842 5.71818
ltoes -13.9262
118
root -4.29451 15.755 20.1473 28.0467 5.95095 -0.778952
lowerback -20.171 1.02698 2.6166
upperback -16.1809 1.06106 -0.5818
thorax -6.41144 0.305089 -1.95038
lowerneck -15.7264 -3.85181 -5.02321
upperneck 35.4473 -5.41826 3.32014
head 15.2793 -2.51363 1.33033
rclavicle 7.70291e-015 8.74653e-015
rhumerus -22.1362 6.34337 -79.2558
rradius 115.482
rwrist 37.0136
rhand -5.74765 -8.42845
rfingers 7.12502
rthumb 20.0749 -37.4113
lclavicle 7.70291e-015 8.74653e-015
lhumerus -26.5554 -2.56263 79.9205
lradius 118.229
lwrist -28.1265
lhand -9.28485 15.5614
lfingers 7.12502
lthumb 16.6722 44.8654
rfemur -56.2561 -3.22061 20.3355
rtibia 61.8015
rfoot -27.5122 -14.0522
rtoes -14.2322
lfemur -56.9796 6.58308 -19.8691
ltibia 61.1561
lfoot -27.3847 5.72112
ltoes -13.925
